<svg width="20" height="20" viewBox="0 0 20 20" fill="none" xmlns="http://www.w3.org/2000/svg">
<circle cx="10" cy="10" r="9" stroke="#F34D7F" stroke-width="2"/>
<path d="M12.3575 14.7652C12.3575 15.9665 11.3801 16.9439 10.1787 16.9439C8.97738 16.9439 8 15.9665 8 14.7652C8 13.5638 8.97738 12.5864 10.1787 12.5864C11.3801 12.5864 12.3575 13.5638 12.3575 14.7652ZM8.25219 3.68627L8.62257 11.094C8.63998 11.4418 8.92708 11.7149 9.27538 11.7149H11.0821C11.4304 11.7149 11.7175 11.4418 11.7349 11.094L12.1053 3.68627C12.1239 3.31292 11.8263 3 11.4525 3H8.90499C8.53118 3 8.23353 3.31292 8.25219 3.68627Z" fill="#F34D7F"/>
</svg>
