<svg width="18" height="20" viewBox="0 0 18 20" fill="none" xmlns="http://www.w3.org/2000/svg">
<path d="M1 5C1 3.11438 1 2.17157 1.58579 1.58579C2.17157 1 3.11438 1 5 1H13C14.8856 1 15.8284 1 16.4142 1.58579C17 2.17157 17 3.11438 17 5V13C17 15.8284 17 17.2426 16.1213 18.1213C15.2426 19 13.8284 19 11 19H7C4.17157 19 2.75736 19 1.87868 18.1213C1 17.2426 1 15.8284 1 13V5Z" stroke="#222222"/>
<path d="M12 16L12 19M6 16L6 19" stroke="#222222" stroke-linecap="round"/>
<path d="M6 6L12 6" stroke="#222222" stroke-linecap="round"/>
<path d="M6 10L12 10" stroke="#222222" stroke-linecap="round"/>
</svg>
