<svg width="20" height="18" viewBox="0 0 20 18" fill="none" xmlns="http://www.w3.org/2000/svg">
<path d="M3.96472 1.1363C3.2865 1.31803 2.66807 1.67508 2.17157 2.17157C1.67508 2.66807 1.31803 3.2865 1.1363 3.96472" stroke="#F34D7F" stroke-width="2" stroke-linecap="round"/>
<path d="M16.0353 1.1363C16.7135 1.31803 17.3319 1.67508 17.8284 2.17157C18.3249 2.66807 18.682 3.2865 18.8637 3.96472" stroke="#F34D7F" stroke-width="2" stroke-linecap="round"/>
<path fill-rule="evenodd" clip-rule="evenodd" d="M10 18C14.4183 18 18 14.4183 18 10C18 5.58172 14.4183 2 10 2C5.58172 2 2 5.58172 2 10C2 14.4183 5.58172 18 10 18ZM11 6C11 5.44772 10.5523 5 10 5C9.44772 5 9 5.44772 9 6V9.75C9 10.4404 9.55964 11 10.25 11H13C13.5523 11 14 10.5523 14 10C14 9.44772 13.5523 9 13 9H11V6Z" fill="#F34D7F"/>
</svg>
