<svg width="24" height="24" viewBox="0 0 24 24" fill="none" xmlns="http://www.w3.org/2000/svg">
<path d="M22 12L22.7809 12.6247L23.2806 12L22.7809 11.3753L22 12ZM13 11C12.4477 11 12 11.4477 12 12C12 12.5523 12.4477 13 13 13V11ZM18.7809 17.6247L22.7809 12.6247L21.2191 11.3753L17.2191 16.3753L18.7809 17.6247ZM22.7809 11.3753L18.7809 6.3753L17.2191 7.6247L21.2191 12.6247L22.7809 11.3753ZM22 11H13V13H22V11Z" fill="#33363F"/>
<path d="M14 15.8681V16.6115C14 18.2298 14 19.039 13.526 19.5985C13.0521 20.158 12.2539 20.291 10.6576 20.5571L8.98639 20.8356C5.7433 21.3761 4.12175 21.6464 3.06088 20.7477C2 19.849 2 18.2051 2 14.9172V9.08276C2 5.79493 2 4.15102 3.06088 3.25232C4.12175 2.35363 5.7433 2.62388 8.98639 3.1644L10.6576 3.44293C12.2539 3.70899 13.0521 3.84201 13.526 4.4015C14 4.961 14 5.77017 14 7.38851V7.93403" stroke="#33363F" stroke-width="2"/>
</svg>
