<svg width="20" height="19" viewBox="0 0 20 19" fill="none" xmlns="http://www.w3.org/2000/svg">
<path d="M18.2416 3.34195C19 4.27645 19 5.57736 19 8.17916C19 10.781 19 12.0819 18.2416 13.0164C17.9133 13.4209 17.4914 13.7683 17.0001 14.0386C16.0085 14.5841 14.6774 14.653 12.25 14.6618V14.663L11.0062 16.7111C10.5916 17.3938 9.40836 17.3938 8.99377 16.7111L7.75 14.663V14.6618C5.32259 14.653 3.99145 14.5841 2.99993 14.0386C2.50858 13.7683 2.0867 13.4209 1.75839 13.0164C1 12.0819 1 10.781 1 8.17916C1 5.57736 1 4.27645 1.75839 3.34195C2.0867 2.93739 2.50858 2.59004 2.99993 2.31973C4.13494 1.69531 5.71496 1.69531 8.875 1.69531H11.125C14.285 1.69531 15.8651 1.69531 17.0001 2.31973C17.4914 2.59004 17.9133 2.93739 18.2416 3.34195Z" stroke="white" stroke-width="2" stroke-linecap="round" stroke-linejoin="round"/>
</svg>
