<svg width="24" height="24" viewBox="0 0 24 24" fill="none" xmlns="http://www.w3.org/2000/svg">
<path d="M4.58312 14.0698L11.4429 20.2828C11.6517 20.4719 11.7561 20.5664 11.8761 20.5971C11.9574 20.6179 12.0426 20.6179 12.1239 20.5971C12.2439 20.5664 12.3483 20.4719 12.5571 20.2828L19.4169 14.0698C21.4287 12.2476 21.6709 9.17287 19.9692 7.05819L19.7588 6.79672C17.7713 4.32691 13.8927 4.75127 12.4863 7.5924C12.287 7.99493 11.713 7.99493 11.5137 7.5924C10.1073 4.75127 6.22868 4.32692 4.24119 6.79672L4.03078 7.05819C2.32907 9.17287 2.57129 12.2476 4.58312 14.0698Z" stroke="white" stroke-width="2"/>
</svg>
