<svg width="24" height="24" viewBox="0 0 24 24" fill="none" xmlns="http://www.w3.org/2000/svg">
<path d="M4 8.67746C4 5.95044 4 4.58693 4.87868 3.73975C5.75736 2.89258 7.17157 2.89258 10 2.89258H14C16.8284 2.89258 18.2426 2.89258 19.1213 3.73975C20 4.58693 20 5.95044 20 8.67746V15.2603C20 17.8474 20 19.1409 19.1557 19.5365C18.3114 19.9322 17.2565 19.133 15.1465 17.5347L14.4713 17.0231C13.2849 16.1244 12.6917 15.675 12 15.675C11.3083 15.675 10.7151 16.1244 9.52871 17.0231L8.85346 17.5347C6.74355 19.133 5.68859 19.9322 4.84429 19.5365C4 19.1409 4 17.8474 4 15.2603V8.67746Z" stroke="white" stroke-width="2"/>
</svg>
