<svg width="27" height="22" viewBox="0 0 27 22" fill="none" xmlns="http://www.w3.org/2000/svg">
<path d="M1 11.7947C1.07367 9.21639 2.61327 3.6423 8.18235 1.97252C13.7514 0.302752 18.1271 1.11035 20.2266 1.97252C23.21 3.19771 26.3261 6.1224 25.9725 9.46195C25.6189 12.8015 22.2156 14.2912 20.5581 14.6186C18.7901 14.7823 14.7459 15.8955 12.7128 19.0386C10.6796 22.1817 4.64642 19.7127 3.43095 18.1166C2.73113 17.4618 1 15.4289 1 11.7947Z" fill="#B4B4B4" stroke="#B4B4B4"/>
<path d="M12.5974 8.17822C11.8005 8.17822 11.1484 8.69818 11.1484 9.86043C11.1484 11.0227 12.1144 11.3642 12.5974 11.3897C13.1045 11.4407 14.1187 11.2062 14.1187 9.86043C14.1187 8.51466 13.3943 8.17822 12.5974 8.17822Z" fill="white"/>
</svg>
