<svg width="26" height="26" viewBox="0 0 26 26" fill="none" xmlns="http://www.w3.org/2000/svg">
<path d="M21.125 16.5135V6.68637C21.125 6.35185 20.773 6.13427 20.4738 6.28387L16.9482 8.04664C16.8475 8.09699 16.7316 8.10776 16.6234 8.07683L9.37664 6.00634C9.26839 5.97541 9.15247 5.98618 9.05177 6.03653L5.12375 8.00054C4.9713 8.07677 4.875 8.23259 4.875 8.40303V18.2301C4.875 18.5647 5.22704 18.7822 5.52625 18.6326L9.05177 16.8699C9.15247 16.8195 9.26839 16.8087 9.37664 16.8397L16.6234 18.9102C16.7316 18.9411 16.8475 18.9303 16.9482 18.88L20.8762 16.916C21.0287 16.8397 21.125 16.6839 21.125 16.5135Z" stroke="#222222"/>
<path d="M16.7917 18.9583V8.125" stroke="#222222"/>
<path d="M9.20825 16.7916V5.95825" stroke="#222222"/>
</svg>
