<svg width="20" height="21" viewBox="0 0 19 20" fill="none" xmlns="http://www.w3.org/2000/svg">
<path fill-rule="evenodd" clip-rule="evenodd" d="M11.6845 0.473621C10.9235 0.167641 10.0942 0 9.22916 0C5.8731 0 3.05373 2.52345 2.68312 5.85899L2.43132 8.1252L2.42527 8.17925C2.31244 9.16248 1.9924 10.1106 1.48627 10.9611L1.45832 11.0077L0.880287 11.9711L0.856139 12.0114C0.614615 12.4138 0.395801 12.7785 0.250048 13.0879C0.101929 13.4024 -0.0564418 13.8286 0.0197902 14.3117C0.0951394 14.7893 0.340917 15.2233 0.711642 15.5337C1.08671 15.8476 1.53359 15.931 1.87948 15.9658C2.21985 16.0001 2.6451 16 3.11449 16L3.16139 16H15.2969L15.3438 16C15.8132 16 16.2385 16.0001 16.5788 15.9658C16.9247 15.931 17.3716 15.8476 17.7467 15.5337C18.1174 15.2233 18.3632 14.7893 18.4385 14.3117C18.5148 13.8286 18.3564 13.4024 18.2083 13.0879C18.0625 12.7785 17.8437 12.4138 17.6022 12.0114L17.578 11.9711L17 11.0077L16.9721 10.9611C16.5933 10.3247 16.3188 9.63358 16.1573 8.91402C15.8565 8.97047 15.5463 9 15.2292 9C14.8452 9 14.4713 8.95672 14.1122 8.87477C14.2968 9.97147 14.6832 11.0259 15.2534 11.9839L15.285 12.0367L15.863 13.0001C16.1365 13.456 16.3014 13.733 16.3989 13.9401C16.4042 13.9514 16.4091 13.9621 16.4136 13.972C16.4027 13.9733 16.3911 13.9746 16.3786 13.9759C16.1509 13.9988 15.8285 14 15.2969 14H3.16139C2.6298 14 2.30742 13.9988 2.07968 13.9759C2.06722 13.9746 2.05558 13.9733 2.04471 13.972C2.0492 13.9621 2.05409 13.9514 2.05942 13.9401C2.15695 13.733 2.32177 13.456 2.59527 13.0001L3.17331 12.0367L3.20494 11.9839C3.85568 10.8904 4.26716 9.67142 4.41223 8.40726L4.41908 8.34607L4.67089 6.07985C4.92896 3.75718 6.8922 2 9.22916 2C9.69218 2 10.1405 2.06898 10.5639 2.19767C10.8158 1.54594 11.2004 0.960226 11.6845 0.473621ZM14.2113 2.27804C13.6233 2.62632 13.2292 3.26713 13.2292 4C13.2292 4.14503 13.2446 4.28645 13.2739 4.42272C13.3943 4.6476 13.4967 4.88404 13.5789 5.13021C13.9393 5.65547 14.544 6 15.2292 6C15.421 6 15.6066 5.97298 15.7823 5.92254L15.7752 5.85899C15.623 4.48875 15.0575 3.25555 14.2113 2.27804Z" fill="#33363F"/>
<path d="M6.33147 15.6647C6.5024 16.6215 6.87903 17.467 7.40296 18.0701C7.9269 18.6731 8.56884 19 9.22925 19C9.88965 19 10.5316 18.6731 11.0555 18.0701C11.5795 17.467 11.9561 16.6215 12.127 15.6647" stroke="#33363F" stroke-width="2" stroke-linecap="round"/>
<circle cx="15.2292" cy="4" r="2.5" fill="#F34D7F" stroke="#F34D7F"/>
</svg>
