<svg width="28" height="28" viewBox="0 0 28 28" fill="none" xmlns="http://www.w3.org/2000/svg">
<path fill-rule="evenodd" clip-rule="evenodd" d="M5.66312 9.33342C4.46846 9.33342 3.5 10.3019 3.5 11.4965V17.3334C3.5 20.1618 3.5 21.5761 4.37868 22.4547C5.25736 23.3334 6.67157 23.3334 9.5 23.3334H18.5C21.3284 23.3334 22.7426 23.3334 23.6213 22.4547C24.5 21.5761 24.5 20.1618 24.5 17.3334V11.4965C24.5 10.3019 23.5315 9.33342 22.3369 9.33342C21.5176 9.33342 20.7685 8.8705 20.4021 8.13767L19.4444 6.2223C19.227 5.78739 19.1183 5.56994 18.9744 5.39528C18.6936 5.05436 18.3079 4.81597 17.8774 4.7173C17.6569 4.66675 17.4137 4.66675 16.9275 4.66675H11.0725C10.5863 4.66675 10.3431 4.66675 10.1226 4.7173C9.69209 4.81597 9.30636 5.05436 9.02559 5.39528C8.88174 5.56994 8.77301 5.78739 8.55556 6.22229L8.55556 6.2223L7.59787 8.13767C7.23146 8.8705 6.48245 9.33342 5.66312 9.33342ZM16.6667 15.1667C16.6667 16.6395 15.4728 17.8334 14 17.8334C12.5272 17.8334 11.3333 16.6395 11.3333 15.1667C11.3333 13.694 12.5272 12.5001 14 12.5001C15.4728 12.5001 16.6667 13.694 16.6667 15.1667ZM18.6667 15.1667C18.6667 17.7441 16.5773 19.8334 14 19.8334C11.4227 19.8334 9.33333 17.7441 9.33333 15.1667C9.33333 12.5894 11.4227 10.5001 14 10.5001C16.5773 10.5001 18.6667 12.5894 18.6667 15.1667Z" fill="#222222"/>
</svg>
