<svg width="22" height="17" viewBox="0 0 22 17" fill="none" xmlns="http://www.w3.org/2000/svg">
<path d="M1.3999 9.55111C1.45883 7.50867 2.69052 3.09311 7.14578 1.77039C11.601 0.44767 15.1016 1.08741 16.7812 1.77039C19.1679 2.74093 21.6608 5.05775 21.3779 7.70319C21.095 10.3486 18.3723 11.5287 17.0464 11.7881C15.632 11.9177 12.3966 12.7996 10.7701 15.2894C9.14358 17.7792 4.31704 15.8234 3.34466 14.559C2.78481 14.0403 1.3999 12.43 1.3999 9.55111Z" fill="#D9D9D9"/>
<path d="M10.4799 6.29419C9.84241 6.29419 9.3208 6.70608 9.3208 7.62676C9.3208 8.54745 10.0936 8.818 10.4799 8.83819C10.8856 8.87857 11.697 8.69282 11.697 7.62676C11.697 6.5607 11.1175 6.29419 10.4799 6.29419Z" fill="white"/>
<path fill-rule="evenodd" clip-rule="evenodd" d="M16.6122 2.17851C15.0271 1.53395 11.6314 0.899309 7.27397 2.193C5.17765 2.81537 3.83967 4.16182 3.01211 5.60833C2.18128 7.06056 1.87445 8.59983 1.84568 9.55747C1.84771 12.2784 3.15336 13.7774 3.64931 14.2369L3.67666 14.2623L3.69936 14.2918C3.88437 14.5323 4.30118 14.8554 4.8951 15.1668C5.47687 15.4718 6.18462 15.7426 6.90863 15.9013C8.40066 16.2284 9.74508 16.0466 10.3962 15.0498C11.2693 13.7134 12.5629 12.8238 13.8 12.2537C15.0237 11.6898 16.2236 11.4237 16.9816 11.351C17.59 11.2285 18.5249 10.893 19.3353 10.2881C20.1493 9.68065 20.8102 8.82465 20.935 7.65675C21.0597 6.49098 20.5766 5.36636 19.7415 4.39463C18.9063 3.42277 17.7473 2.64009 16.6122 2.17851ZM7.01806 1.34782C11.5711 -0.00394046 15.1766 0.640898 16.9507 1.3623C18.2023 1.87126 19.483 2.73226 20.4202 3.8228C21.3575 4.91347 21.9794 6.26998 21.8212 7.74966C21.6632 9.22721 20.8213 10.284 19.8717 10.9927C18.9281 11.697 17.8512 12.0804 17.1329 12.2209L17.1105 12.2253L17.0877 12.2274C16.4299 12.2877 15.3173 12.5277 14.176 13.0537C13.0353 13.5793 11.8979 14.3756 11.1444 15.529C10.1691 17.0221 8.28696 17.1072 6.71599 16.7628C5.9085 16.5858 5.12564 16.2861 4.47812 15.9466C3.85918 15.6221 3.32014 15.2384 3.01427 14.8567C2.37713 14.2561 0.95459 12.5422 0.95459 9.55112V9.54482L0.954772 9.53852C0.986085 8.45327 1.32504 6.76708 2.23679 5.17341C3.15362 3.57085 4.65911 2.04816 7.01806 1.34782Z" fill="#535353"/>
</svg>
