<svg width="22" height="17" viewBox="0 0 22 17" fill="none" xmlns="http://www.w3.org/2000/svg">
<path d="M1 9.55111C1.05893 7.50867 2.29061 3.09311 6.74588 1.77039C11.2011 0.44767 14.7017 1.08741 16.3813 1.77039C18.768 2.74093 21.2609 5.05775 20.978 7.70319C20.6951 10.3486 17.9724 11.5287 16.6465 11.7881C15.2321 11.9177 11.9967 12.7996 10.3702 15.2894C8.74368 17.7792 3.91714 15.8234 2.94476 14.559C2.3849 14.0403 1 12.43 1 9.55111Z" fill="#EB4256"/>
<path d="M10.08 6.29419C9.44251 6.29419 8.9209 6.70608 8.9209 7.62676C8.9209 8.54745 9.69366 8.818 10.08 8.83819C10.4857 8.87857 11.2971 8.69282 11.2971 7.62676C11.2971 6.5607 10.7176 6.29419 10.08 6.29419Z" fill="white"/>
<path fill-rule="evenodd" clip-rule="evenodd" d="M16.2123 2.17851C14.6272 1.53395 11.2315 0.899309 6.87407 2.193C4.77775 2.81537 3.43976 4.16182 2.61221 5.60833C1.78137 7.06056 1.47455 8.59983 1.44578 9.55747C1.44781 12.2784 2.75346 13.7774 3.2494 14.2369L3.27676 14.2623L3.29946 14.2918C3.48447 14.5323 3.90127 14.8554 4.4952 15.1668C5.07697 15.4718 5.78472 15.7426 6.50873 15.9013C8.00076 16.2284 9.34518 16.0466 9.99634 15.0498C10.8694 13.7134 12.163 12.8238 13.4001 12.2537C14.6238 11.6898 15.8237 11.4237 16.5817 11.351C17.1901 11.2285 18.125 10.893 18.9354 10.2881C19.7494 9.68065 20.4103 8.82465 20.5351 7.65675C20.6598 6.49098 20.1767 5.36636 19.3416 4.39463C18.5064 3.42277 17.3474 2.64009 16.2123 2.17851ZM6.61815 1.34782C11.1712 -0.00394048 14.7767 0.640898 16.5508 1.3623C17.8024 1.87126 19.0831 2.73226 20.0203 3.8228C20.9576 4.91347 21.5795 6.26998 21.4213 7.74966C21.2633 9.22721 20.4214 10.284 19.4718 10.9927C18.5282 11.697 17.4513 12.0804 16.733 12.2209L16.7106 12.2253L16.6878 12.2274C16.03 12.2877 14.9174 12.5277 13.7761 13.0537C12.6354 13.5793 11.498 14.3756 10.7445 15.529C9.76917 17.0221 7.88706 17.1072 6.31609 16.7628C5.5086 16.5858 4.72573 16.2861 4.07822 15.9466C3.45927 15.6221 2.92024 15.2384 2.61437 14.8567C1.97722 14.2561 0.554688 12.5422 0.554688 9.55112V9.54482L0.554869 9.53852C0.586183 8.45327 0.925138 6.76708 1.83688 5.17341C2.75372 3.57085 4.25921 2.04816 6.61815 1.34782Z" fill="#535353"/>
</svg>
