<svg width="24" height="24" viewBox="0 0 24 24" fill="none" xmlns="http://www.w3.org/2000/svg">
<path d="M4.99976 10L5.70686 9.29289L4.99976 8.58579L4.29265 9.29289L4.99976 10ZM9.70686 13.2929L5.70686 9.29289L4.29265 10.7071L8.29265 14.7071L9.70686 13.2929ZM4.29265 9.29289L0.292649 13.2929L1.70686 14.7071L5.70686 10.7071L4.29265 9.29289Z" fill="currentColor"/>
<path d="M8.49976 5.93782C9.83425 5.16735 11.3857 4.85875 12.9134 5.05989C14.4412 5.26102 15.8599 5.96064 16.9495 7.05025C18.0391 8.13986 18.7387 9.55856 18.9399 11.0863C19.141 12.6141 18.8324 14.1655 18.0619 15.5C17.2915 16.8345 16.1022 17.8775 14.6785 18.4672C13.2549 19.0568 11.6765 19.1603 10.188 18.7615C8.69959 18.3627 7.38435 17.4838 6.44628 16.2613C5.50822 15.0388 4.99976 13.5409 4.99976 12" stroke="currentColor" stroke-width="2" stroke-linecap="round"/>
</svg>
