<svg width="19" height="19" viewBox="0 0 19 19" fill="none" xmlns="http://www.w3.org/2000/svg">
<path d="M1 14.3597L0.674738 13.98L0.231391 14.3597L0.674737 14.7395L1 14.3597ZM18.5 1C18.5 0.723858 18.2761 0.5 18 0.5C17.7239 0.5 17.5 0.723858 17.5 1L18.5 1ZM4.92474 10.3397L0.674738 13.98L1.32526 14.7395L5.57526 11.0992L4.92474 10.3397ZM0.674737 14.7395L4.92474 18.3797L5.57526 17.6203L1.32526 13.98L0.674737 14.7395ZM1 14.8597H13V13.8597H1V14.8597ZM18.5 9.35971V1L17.5 1V9.35971H18.5ZM13 14.8597C16.0376 14.8597 18.5 12.3973 18.5 9.35971H17.5C17.5 11.845 15.4853 13.8597 13 13.8597V14.8597Z" fill="currentColor"/>
</svg>
