<svg width="20" height="20" viewBox="0 0 20 20" fill="none" xmlns="http://www.w3.org/2000/svg">
<path fill-rule="evenodd" clip-rule="evenodd" d="M4.04508 6.66659C3.19176 6.66659 2.5 7.35834 2.5 8.21167V12.3809C2.5 13.5778 2.5 14.1763 2.66835 14.6574C2.96989 15.5192 3.64742 16.1967 4.50916 16.4982C4.99028 16.6666 5.58876 16.6666 6.78571 16.6666H13.2143C14.4112 16.6666 15.0097 16.6666 15.4908 16.4982C16.3526 16.1967 17.0301 15.5192 17.3316 14.6574C17.5 14.1763 17.5 13.5778 17.5 12.3809V8.21167C17.5 7.35834 16.8082 6.66659 15.9549 6.66659C15.3697 6.66659 14.8347 6.33593 14.5729 5.81248L13.8889 4.44436L13.8836 4.43387C13.5448 3.76081 12.8564 3.33535 12.1028 3.33326L12.0911 3.33325H7.90893L7.89719 3.33326C7.14364 3.33535 6.45523 3.76081 6.11637 4.43387L6.11111 4.44436L5.42705 5.81248C5.16533 6.33593 4.63032 6.66659 4.04508 6.66659ZM11.3333 10.8333C11.3333 11.5696 10.7364 12.1666 10 12.1666C9.26362 12.1666 8.66667 11.5696 8.66667 10.8333C8.66667 10.0969 9.26362 9.49992 10 9.49992C10.7364 9.49992 11.3333 10.0969 11.3333 10.8333ZM13.3333 10.8333C13.3333 12.6742 11.8409 14.1666 10 14.1666C8.15905 14.1666 6.66667 12.6742 6.66667 10.8333C6.66667 8.9923 8.15905 7.49992 10 7.49992C11.8409 7.49992 13.3333 8.9923 13.3333 10.8333Z" fill="white"/>
</svg>
