<svg width="25" height="20" viewBox="0 0 31 25" fill="none" xmlns="http://www.w3.org/2000/svg">
<path d="M2.5 21L7.44404 15.6065C8.97318 13.9384 9.73774 13.1043 10.6844 13.1579C11.6311 13.2115 12.2966 14.1266 13.6276 15.9567L15.2809 18.23C15.9567 19.1592 16.2946 19.6238 16.7721 19.6477C16.7754 19.6479 16.7788 19.6481 16.7822 19.6482C17.2599 19.6673 17.6382 19.235 18.3947 18.3703V18.3703C20.0368 16.4937 20.8578 15.5553 21.865 15.64C21.8721 15.6406 21.8791 15.6413 21.8862 15.6419C22.8924 15.7373 23.5339 16.8064 24.8168 18.9447L26.5 21.75" stroke="#222222" stroke-width="2"/>
<path d="M7 6.75V1.5" stroke="#33363F" stroke-width="2" stroke-linecap="round"/>
<path d="M23.5 6.75V1.5" stroke="#33363F" stroke-width="2" stroke-linecap="round"/>
<path d="M0 19.5C0 20.0523 0.447715 20.5 1 20.5C1.55228 20.5 2 20.0523 2 19.5H0ZM2 4.5C2 3.94772 1.55228 3.5 1 3.5C0.447715 3.5 0 3.94772 0 4.5H2ZM30.5 4.5C30.5 3.94772 30.0523 3.5 29.5 3.5C28.9477 3.5 28.5 3.94772 28.5 4.5H30.5ZM28.5 19.5C28.5 20.0523 28.9477 20.5 29.5 20.5C30.0523 20.5 30.5 20.0523 30.5 19.5H28.5ZM2 19.5V4.5H0V19.5H2ZM28.5 4.5V19.5H30.5V4.5H28.5Z" fill="#33363F"/>
<path d="M23.5111 1.44446C25.9714 1.90511 27.812 2.55949 28.7676 3.31324C29.7231 4.06698 29.7442 4.88112 28.8277 5.63821C27.9113 6.39531 26.1047 7.05623 23.6685 7.52565C21.2323 7.99506 18.2925 8.24871 15.2731 8.25C12.2537 8.25128 9.31075 8.00014 6.8688 7.53281C4.42685 7.06547 2.61211 6.40609 1.68634 5.64978C0.760562 4.89347 0.771607 4.07932 1.71788 3.32476C2.66415 2.57021 4.49674 1.91426 6.9513 1.45152" stroke="#222222" stroke-width="2" stroke-linecap="round"/>
<path d="M29.5 19.5C29.5 20.4946 27.9987 21.4484 25.3263 22.1517C22.6539 22.8549 19.0293 23.25 15.25 23.25C11.4707 23.25 7.84612 22.8549 5.17373 22.1517C2.50134 21.4484 1 20.4946 1 19.5" stroke="#222222" stroke-width="2"/>
</svg>
