<svg width="16" height="20" viewBox="0 0 16 20" fill="none" xmlns="http://www.w3.org/2000/svg">
<path fill-rule="evenodd" clip-rule="evenodd" d="M8.39804 15.804C9.88097 15.0348 15 12.0163 15 7C15 3.13401 11.866 0 8 0C4.13401 0 1 3.13401 1 7C1 12.0163 6.11903 15.0348 7.60196 15.804C7.85483 15.9351 8.14517 15.9351 8.39804 15.804ZM8 10C9.65685 10 11 8.65685 11 7C11 5.34315 9.65685 4 8 4C6.34315 4 5 5.34315 5 7C5 8.65685 6.34315 10 8 10Z" fill="#222222"/>
<path d="M14.0622 14.5C14.6766 14.9561 15 15.4734 15 16C15 16.5266 14.6766 17.0439 14.0622 17.5C13.4478 17.9561 12.5641 18.3348 11.5 18.5981C10.4359 18.8614 9.22876 19 8 19C6.77124 19 5.56414 18.8614 4.5 18.5981C3.43587 18.3348 2.5522 17.9561 1.93782 17.5C1.32344 17.0439 1 16.5266 1 16C1 15.4734 1.32344 14.9561 1.93782 14.5" stroke="#222222" stroke-width="2" stroke-linecap="round"/>
</svg>
